# xmcd
#
# Track frame offsets:
# 150
# 30052
# 57291
# 72864
# 109081
# 127149
# 146537
# 192338
#
# Disc length: 2937 seconds
#
#
# Revision: 0
# Processed by: cddbd v1.5.2PL0 Copyright (c) Steve Scherf et al.
# Submitted via: FreeRIP 2.96 
#
DISCID=6d0b7708
DTITLE=Eric Clapton - LIVE IN HYDE PARK CD1
DYEAR=1996
DGENRE=Blues
TTITLE0=Layla
TTITLE1=Badge
TTITLE2=Hoochie Coochie Man
TTITLE3=I Shot The Sheriff
TTITLE4=It Hurts Me Too
TTITLE5=Woderful Tonight
TTITLE6=Five Long Years
TTITLE7=Tearing Us Apart
EXTD=
EXTT0=
EXTT1=
EXTT2=
EXTT3=
EXTT4=
EXTT5=
EXTT6=
EXTT7=
PLAYORDER=
